<mxfile host="app.diagrams.net" modified="2023-09-30T20:57:03.675Z" agent="Mozilla/5.0 (Windows NT 10.0; Win64; x64) AppleWebKit/537.36 (KHTML, like Gecko) Chrome/117.0.0.0 Safari/537.36" etag="qZC7NdUTW4w2d-us8yp4" version="21.8.2" type="device">
  <diagram name="PÃ¡gina-1" id="LstiYGEXyLYIb6DwfCMF">
    <mxGraphModel dx="1687" dy="904" grid="1" gridSize="10" guides="1" tooltips="1" connect="1" arrows="1" fold="1" page="1" pageScale="1" pageWidth="827" pageHeight="1169" math="0" shadow="0">
      <root>
        <mxCell id="0" />
        <mxCell id="1" parent="0" />
        <mxCell id="ayrhzKMhdL5xQ_Is3vg9-6" style="edgeStyle=orthogonalEdgeStyle;rounded=0;orthogonalLoop=1;jettySize=auto;html=1;entryX=0.5;entryY=0;entryDx=0;entryDy=0;" edge="1" parent="1" source="ayrhzKMhdL5xQ_Is3vg9-1" target="ayrhzKMhdL5xQ_Is3vg9-2">
          <mxGeometry relative="1" as="geometry" />
        </mxCell>
        <mxCell id="ayrhzKMhdL5xQ_Is3vg9-1" value="int main()" style="ellipse;whiteSpace=wrap;html=1;" vertex="1" parent="1">
          <mxGeometry x="361" y="20" width="106" height="70" as="geometry" />
        </mxCell>
        <mxCell id="ayrhzKMhdL5xQ_Is3vg9-7" style="edgeStyle=orthogonalEdgeStyle;rounded=0;orthogonalLoop=1;jettySize=auto;html=1;" edge="1" parent="1" source="ayrhzKMhdL5xQ_Is3vg9-2" target="ayrhzKMhdL5xQ_Is3vg9-3">
          <mxGeometry relative="1" as="geometry" />
        </mxCell>
        <mxCell id="ayrhzKMhdL5xQ_Is3vg9-2" value="srand(time(NULL))" style="rounded=0;whiteSpace=wrap;html=1;" vertex="1" parent="1">
          <mxGeometry x="356" y="120" width="116" height="40" as="geometry" />
        </mxCell>
        <mxCell id="ayrhzKMhdL5xQ_Is3vg9-8" style="edgeStyle=orthogonalEdgeStyle;rounded=0;orthogonalLoop=1;jettySize=auto;html=1;entryX=0.5;entryY=0;entryDx=0;entryDy=0;" edge="1" parent="1" source="ayrhzKMhdL5xQ_Is3vg9-3" target="ayrhzKMhdL5xQ_Is3vg9-4">
          <mxGeometry relative="1" as="geometry" />
        </mxCell>
        <mxCell id="ayrhzKMhdL5xQ_Is3vg9-3" value="int op" style="rounded=0;whiteSpace=wrap;html=1;" vertex="1" parent="1">
          <mxGeometry x="364" y="190" width="100" height="40" as="geometry" />
        </mxCell>
        <mxCell id="ayrhzKMhdL5xQ_Is3vg9-13" style="edgeStyle=orthogonalEdgeStyle;rounded=0;orthogonalLoop=1;jettySize=auto;html=1;entryX=0.5;entryY=0;entryDx=0;entryDy=0;exitX=0.502;exitY=0.851;exitDx=0;exitDy=0;exitPerimeter=0;" edge="1" parent="1" source="ayrhzKMhdL5xQ_Is3vg9-4" target="ayrhzKMhdL5xQ_Is3vg9-9">
          <mxGeometry relative="1" as="geometry" />
        </mxCell>
        <mxCell id="ayrhzKMhdL5xQ_Is3vg9-4" value="&quot;&amp;nbsp; &amp;nbsp;M&amp;nbsp; E&amp;nbsp; &amp;nbsp;N&amp;nbsp; &amp;nbsp;U ,&lt;br&gt;1.- JUEGO DE LA LOTERIA,&lt;br&gt;2.- LA CARRERA DE COCHES,&lt;br&gt;0.- SALIR,&lt;br&gt;ESCOGE UNA OPCION: &quot;" style="shape=document;whiteSpace=wrap;html=1;boundedLbl=1;" vertex="1" parent="1">
          <mxGeometry x="319" y="270" width="190" height="130" as="geometry" />
        </mxCell>
        <mxCell id="ayrhzKMhdL5xQ_Is3vg9-12" value="" style="group" vertex="1" connectable="0" parent="1">
          <mxGeometry x="362" y="410" width="110" height="57" as="geometry" />
        </mxCell>
        <mxCell id="ayrhzKMhdL5xQ_Is3vg9-9" value="op" style="shape=parallelogram;perimeter=parallelogramPerimeter;whiteSpace=wrap;html=1;fixedSize=1;" vertex="1" parent="ayrhzKMhdL5xQ_Is3vg9-12">
          <mxGeometry y="17" width="104" height="40" as="geometry" />
        </mxCell>
        <mxCell id="ayrhzKMhdL5xQ_Is3vg9-10" value="" style="endArrow=classic;html=1;rounded=0;" edge="1" parent="ayrhzKMhdL5xQ_Is3vg9-12">
          <mxGeometry width="50" height="50" relative="1" as="geometry">
            <mxPoint x="110" as="sourcePoint" />
            <mxPoint x="82" y="30" as="targetPoint" />
          </mxGeometry>
        </mxCell>
        <mxCell id="ayrhzKMhdL5xQ_Is3vg9-22" style="edgeStyle=orthogonalEdgeStyle;rounded=0;orthogonalLoop=1;jettySize=auto;html=1;entryX=0.5;entryY=0;entryDx=0;entryDy=0;" edge="1" parent="1" source="ayrhzKMhdL5xQ_Is3vg9-14" target="ayrhzKMhdL5xQ_Is3vg9-16">
          <mxGeometry relative="1" as="geometry" />
        </mxCell>
        <mxCell id="ayrhzKMhdL5xQ_Is3vg9-23" style="edgeStyle=orthogonalEdgeStyle;rounded=0;orthogonalLoop=1;jettySize=auto;html=1;entryX=0.5;entryY=0;entryDx=0;entryDy=0;" edge="1" parent="1" source="ayrhzKMhdL5xQ_Is3vg9-14" target="ayrhzKMhdL5xQ_Is3vg9-15">
          <mxGeometry relative="1" as="geometry">
            <Array as="points">
              <mxPoint x="414" y="620" />
              <mxPoint x="225" y="620" />
            </Array>
          </mxGeometry>
        </mxCell>
        <mxCell id="ayrhzKMhdL5xQ_Is3vg9-26" style="edgeStyle=orthogonalEdgeStyle;rounded=0;orthogonalLoop=1;jettySize=auto;html=1;entryX=0.5;entryY=0;entryDx=0;entryDy=0;" edge="1" parent="1" source="ayrhzKMhdL5xQ_Is3vg9-14" target="ayrhzKMhdL5xQ_Is3vg9-24">
          <mxGeometry relative="1" as="geometry">
            <Array as="points">
              <mxPoint x="414" y="620" />
              <mxPoint x="570" y="620" />
              <mxPoint x="570" y="840" />
              <mxPoint x="414" y="840" />
            </Array>
          </mxGeometry>
        </mxCell>
        <mxCell id="ayrhzKMhdL5xQ_Is3vg9-14" value="op" style="rhombus;whiteSpace=wrap;html=1;" vertex="1" parent="1">
          <mxGeometry x="374" y="510" width="80" height="60" as="geometry" />
        </mxCell>
        <mxCell id="ayrhzKMhdL5xQ_Is3vg9-29" style="edgeStyle=orthogonalEdgeStyle;rounded=0;orthogonalLoop=1;jettySize=auto;html=1;entryX=0.5;entryY=0;entryDx=0;entryDy=0;" edge="1" parent="1" source="ayrhzKMhdL5xQ_Is3vg9-15" target="ayrhzKMhdL5xQ_Is3vg9-28">
          <mxGeometry relative="1" as="geometry" />
        </mxCell>
        <mxCell id="ayrhzKMhdL5xQ_Is3vg9-15" value="JUEGO DE LA LOTERIA" style="shape=document;whiteSpace=wrap;html=1;boundedLbl=1;" vertex="1" parent="1">
          <mxGeometry x="150" y="650" width="150" height="60" as="geometry" />
        </mxCell>
        <mxCell id="ayrhzKMhdL5xQ_Is3vg9-36" style="edgeStyle=orthogonalEdgeStyle;rounded=0;orthogonalLoop=1;jettySize=auto;html=1;entryX=0.5;entryY=0;entryDx=0;entryDy=0;" edge="1" parent="1" source="ayrhzKMhdL5xQ_Is3vg9-16" target="ayrhzKMhdL5xQ_Is3vg9-35">
          <mxGeometry relative="1" as="geometry" />
        </mxCell>
        <mxCell id="ayrhzKMhdL5xQ_Is3vg9-16" value="LA CARRERA DE COCHES" style="shape=document;whiteSpace=wrap;html=1;boundedLbl=1;" vertex="1" parent="1">
          <mxGeometry x="324" y="650" width="180" height="60" as="geometry" />
        </mxCell>
        <mxCell id="ayrhzKMhdL5xQ_Is3vg9-19" value="Case 1:" style="text;html=1;strokeColor=none;fillColor=none;align=center;verticalAlign=middle;whiteSpace=wrap;rounded=0;" vertex="1" parent="1">
          <mxGeometry x="165" y="590" width="60" height="30" as="geometry" />
        </mxCell>
        <mxCell id="ayrhzKMhdL5xQ_Is3vg9-20" value="Case 2:" style="text;html=1;strokeColor=none;fillColor=none;align=center;verticalAlign=middle;whiteSpace=wrap;rounded=0;" vertex="1" parent="1">
          <mxGeometry x="350" y="590" width="60" height="30" as="geometry" />
        </mxCell>
        <mxCell id="ayrhzKMhdL5xQ_Is3vg9-21" value="" style="edgeStyle=orthogonalEdgeStyle;rounded=0;orthogonalLoop=1;jettySize=auto;html=1;" edge="1" parent="1" source="ayrhzKMhdL5xQ_Is3vg9-9" target="ayrhzKMhdL5xQ_Is3vg9-14">
          <mxGeometry relative="1" as="geometry" />
        </mxCell>
        <mxCell id="ayrhzKMhdL5xQ_Is3vg9-31" style="edgeStyle=orthogonalEdgeStyle;rounded=0;orthogonalLoop=1;jettySize=auto;html=1;entryX=0.5;entryY=0;entryDx=0;entryDy=0;" edge="1" parent="1" source="ayrhzKMhdL5xQ_Is3vg9-24" target="ayrhzKMhdL5xQ_Is3vg9-25">
          <mxGeometry relative="1" as="geometry" />
        </mxCell>
        <mxCell id="ayrhzKMhdL5xQ_Is3vg9-32" style="edgeStyle=orthogonalEdgeStyle;rounded=0;orthogonalLoop=1;jettySize=auto;html=1;entryX=0.5;entryY=0;entryDx=0;entryDy=0;" edge="1" parent="1" source="ayrhzKMhdL5xQ_Is3vg9-24" target="ayrhzKMhdL5xQ_Is3vg9-4">
          <mxGeometry relative="1" as="geometry">
            <mxPoint x="414" y="250" as="targetPoint" />
            <Array as="points">
              <mxPoint x="630" y="920" />
              <mxPoint x="630" y="250" />
              <mxPoint x="414" y="250" />
            </Array>
          </mxGeometry>
        </mxCell>
        <mxCell id="ayrhzKMhdL5xQ_Is3vg9-24" value="op != 0" style="rhombus;whiteSpace=wrap;html=1;" vertex="1" parent="1">
          <mxGeometry x="374" y="880" width="80" height="80" as="geometry" />
        </mxCell>
        <mxCell id="ayrhzKMhdL5xQ_Is3vg9-25" value="return 0" style="ellipse;whiteSpace=wrap;html=1;" vertex="1" parent="1">
          <mxGeometry x="367.5" y="1000" width="93" height="60" as="geometry" />
        </mxCell>
        <mxCell id="ayrhzKMhdL5xQ_Is3vg9-27" value="Default:" style="text;html=1;strokeColor=none;fillColor=none;align=center;verticalAlign=middle;whiteSpace=wrap;rounded=0;" vertex="1" parent="1">
          <mxGeometry x="509" y="590" width="60" height="30" as="geometry" />
        </mxCell>
        <mxCell id="ayrhzKMhdL5xQ_Is3vg9-30" style="edgeStyle=orthogonalEdgeStyle;rounded=0;orthogonalLoop=1;jettySize=auto;html=1;entryX=0.5;entryY=0;entryDx=0;entryDy=0;" edge="1" parent="1" source="ayrhzKMhdL5xQ_Is3vg9-28" target="ayrhzKMhdL5xQ_Is3vg9-24">
          <mxGeometry relative="1" as="geometry">
            <Array as="points">
              <mxPoint x="225" y="840" />
              <mxPoint x="414" y="840" />
            </Array>
          </mxGeometry>
        </mxCell>
        <mxCell id="ayrhzKMhdL5xQ_Is3vg9-28" value="loteria()" style="rounded=0;whiteSpace=wrap;html=1;" vertex="1" parent="1">
          <mxGeometry x="180" y="750" width="90" height="40" as="geometry" />
        </mxCell>
        <mxCell id="ayrhzKMhdL5xQ_Is3vg9-33" value="V" style="text;html=1;strokeColor=none;fillColor=none;align=center;verticalAlign=middle;whiteSpace=wrap;rounded=0;" vertex="1" parent="1">
          <mxGeometry x="394" y="960" width="60" height="30" as="geometry" />
        </mxCell>
        <mxCell id="ayrhzKMhdL5xQ_Is3vg9-34" value="F" style="text;html=1;strokeColor=none;fillColor=none;align=center;verticalAlign=middle;whiteSpace=wrap;rounded=0;" vertex="1" parent="1">
          <mxGeometry x="430" y="890" width="60" height="30" as="geometry" />
        </mxCell>
        <mxCell id="ayrhzKMhdL5xQ_Is3vg9-37" style="edgeStyle=orthogonalEdgeStyle;rounded=0;orthogonalLoop=1;jettySize=auto;html=1;entryX=0.5;entryY=0;entryDx=0;entryDy=0;" edge="1" parent="1" source="ayrhzKMhdL5xQ_Is3vg9-35" target="ayrhzKMhdL5xQ_Is3vg9-24">
          <mxGeometry relative="1" as="geometry" />
        </mxCell>
        <mxCell id="ayrhzKMhdL5xQ_Is3vg9-35" value="iniciarCarrera()" style="rounded=0;whiteSpace=wrap;html=1;" vertex="1" parent="1">
          <mxGeometry x="363" y="750" width="101" height="40" as="geometry" />
        </mxCell>
      </root>
    </mxGraphModel>
  </diagram>
</mxfile>
